<?xml version="1.0" standalone="no"?>
<!DOCTYPE svg PUBLIC "-//W3C//DTD SVG 20010904//EN"
 "http://www.w3.org/TR/2001/REC-SVG-20010904/DTD/svg10.dtd">
<svg version="1.0" xmlns="http://www.w3.org/2000/svg"
 width="379.000000pt" height="379.000000pt" viewBox="0 0 379.000000 379.000000"
 preserveAspectRatio="xMidYMid meet">
<metadata>
Created by potrace 1.14, written by Peter Selinger 2001-2017
</metadata>
<g transform="translate(0.000000,379.000000) scale(0.100000,-0.100000)"
fill="#000000" stroke="none">
<path d="M3308 3133 c-9 -2 -21 -17 -27 -33 -8 -23 -14 -28 -34 -24 -18 3 -29
-3 -41 -21 -19 -29 -21 -51 -3 -59 8 -3 6 -9 -7 -20 -13 -11 -20 -28 -20 -52
0 -32 -2 -35 -23 -31 -13 2 -28 -1 -33 -8 -6 -7 -19 -11 -30 -8 -14 4 -23 -4
-36 -33 -22 -50 -25 -64 -13 -64 6 0 9 -6 8 -12 -4 -31 2 -48 17 -48 8 0 22
-7 30 -15 18 -17 44 -20 44 -5 0 7 7 7 21 -1 13 -7 19 -7 15 -1 -4 6 2 10 13
9 11 0 18 -7 16 -17 -1 -8 2 -20 7 -27 5 -7 8 -16 5 -20 -10 -17 13 -53 33
-53 11 0 20 -4 20 -9 0 -17 33 -22 49 -7 9 7 24 12 33 11 11 -2 25 11 39 33
27 43 31 60 18 68 -6 3 -7 15 -3 26 4 14 2 18 -5 14 -6 -4 -11 0 -11 9 0 8
-10 20 -22 26 -22 9 -21 9 5 6 15 -3 27 0 27 4 0 5 8 9 19 9 14 0 17 6 13 25
-4 23 5 31 32 26 30 -6 80 44 58 58 -12 7 -24 61 -14 60 27 -4 33 3 28 33 -4
29 -15 42 -31 38 -11 -2 -36 30 -34 42 2 7 0 23 -5 35 -7 22 -19 23 -68 8 -13
-5 -24 -1 -32 11 -14 18 -30 23 -58 17z m82 -124 c0 -5 4 -8 9 -5 5 3 12 -1
15 -10 12 -31 6 -71 -14 -89 -23 -21 -50 -28 -50 -14 0 6 -4 8 -9 5 -17 -11
-39 5 -49 34 -6 16 -7 31 -4 35 4 4 7 10 7 14 0 3 7 14 15 23 16 19 80 24 80
7z m-239 -196 c0 -5 2 -16 4 -25 2 -12 -2 -15 -13 -11 -9 4 -13 2 -9 -4 5 -7
0 -9 -13 -6 -17 5 -20 19 -11 51 2 6 41 1 42 -5z m194 -23 c3 -5 1 -10 -4 -10
-6 0 -11 5 -11 10 0 6 2 10 4 10 3 0 8 -4 11 -10z m-121 -58 c3 -5 -1 -9 -9
-9 -8 0 -12 4 -9 9 3 4 7 8 9 8 2 0 6 -4 9 -8z"/>
<path d="M768 2850 c-307 -5 -318 -7 -325 -47 -7 -37 -3 -146 5 -157 5 -6 8
-314 8 -685 -1 -552 1 -677 12 -688 18 -17 878 -19 899 -1 10 8 13 118 13 546
0 479 2 537 16 553 22 24 26 79 8 107 -16 24 -36 30 -33 10 1 -7 1 -25 0 -40
-1 -23 -6 -28 -26 -28 -25 0 -31 14 -27 63 1 9 -2 17 -6 17 -38 -1 -52 -71
-25 -122 19 -35 20 -63 22 -502 l2 -466 -390 1 -391 2 0 236 c-1 130 -1 346
-1 481 0 135 0 300 0 366 l1 121 340 1 c557 1 510 -1 510 22 0 10 -9 24 -20
30 -13 7 -165 10 -447 10 -379 -1 -429 -3 -445 -17 -12 -11 -18 -12 -18 -4 0
27 21 50 52 56 18 4 38 14 44 23 10 13 153 15 1225 16 l1214 1 -3 44 c-1 25
-4 47 -6 49 -6 6 -1873 8 -2208 2z"/>
<path d="M3352 2333 l3 -188 45 0 45 1 3 187 2 187 -50 0 -50 0 2 -187z"/>
<path d="M2884 2112 c-18 -2 -40 -12 -50 -23 -17 -19 -18 -55 -19 -572 0 -304
2 -570 6 -591 12 -67 11 -67 327 -64 267 3 284 4 298 22 22 31 17 39 -18 31
-55 -13 -540 -16 -555 -3 -10 8 -13 124 -13 568 0 307 3 565 6 574 4 11 19 16
50 16 38 0 46 -4 56 -25 6 -14 14 -26 17 -26 19 -4 276 -6 291 -2 10 3 23 16
29 29 9 20 18 24 56 24 25 0 45 -4 45 -10 0 -5 12 -10 26 -10 20 0 25 4 20 16
-3 9 -6 19 -6 24 0 5 -15 12 -32 16 -32 7 -472 12 -534 6z m292 -55 c4 -4 -26
-7 -67 -6 -41 0 -66 3 -57 7 22 9 115 8 124 -1z"/>
<path d="M3425 2011 c-3 -6 -6 -123 -7 -260 -1 -200 -4 -251 -15 -252 -7 -1
-18 -2 -24 -3 -34 -4 -47 -103 -20 -154 6 -11 5 -30 -3 -53 -7 -20 -12 -79
-11 -140 3 -142 2 -137 31 -164 36 -33 93 -34 130 -2 26 23 27 25 28 160 1 82
-2 137 -8 137 -5 0 -6 3 -3 6 3 4 2 14 -3 24 -6 10 -4 30 4 54 15 44 12 116
-5 127 -7 4 -20 6 -30 4 -10 -2 -20 4 -24 13 -3 8 -5 122 -4 253 0 131 -2 242
-6 248 -8 14 -22 14 -30 2z m-3 -877 c-1 -102 -5 -125 -18 -111 -7 7 -12 206
-6 225 3 9 8 10 15 3 6 -6 10 -56 9 -117z"/>
<path d="M970 1220 c-307 -4 -441 -8 -455 -17 -25 -15 -54 -48 -64 -76 -8 -21
-13 -22 -164 -21 -148 1 -156 0 -165 -20 -23 -51 0 -80 87 -107 66 -21 74 -21
1261 -20 657 0 1205 1 1218 1 23 0 23 1 21 134 l-1 134 -651 -2 c-359 0 -848
-3 -1087 -6z"/>
</g>
</svg>
